<?xml version="1.0" encoding="utf-8"?>
<svg xmlns="http://www.w3.org/2000/svg"
	xmlns:xlink="http://www.w3.org/1999/xlink"
	width="115px" height="171px" viewBox="0 0 115 171">
<style type="text/css"><![CDATA[
.style0 {
  font-size: 48px;
  font-family: "Montserrat-UltraLight";
  fill: rgb(255,255,255);
}
.style1 {
  font-size: 14px;
  font-family: "Montserrat-Light";
  fill: rgb(199,178,153);
  text-transform: uppercase;
}
]]></style>

<path  d="M 64.87 23.37C 64.87 23.37 51.13 23.37 51.13 23.37 50.37 23.37 49.75 23.99 49.75 24.75 49.75 25.51 50.37 26.12 51.13 26.12 51.13 26.12 64.87 26.12 64.87 26.12 65.63 26.12 66.25 25.51 66.25 24.75 66.25 23.99 65.63 23.37 64.87 23.37ZM 67.62 15.13C 67.62 15.13 48.38 15.13 48.38 15.13 47.62 15.13 47 15.74 47 16.5 47 17.26 47.62 17.87 48.38 17.87 48.38 17.87 67.62 17.87 67.62 17.87 68.38 17.87 69 17.26 69 16.5 69 15.74 68.38 15.13 67.62 15.13ZM 58 0C 45.85 0 36 8.62 36 19.25 36 25.32 39.23 30.73 44.25 34.26 44.25 34.26 44.25 44 44.25 44 44.25 44 53.89 38.15 53.89 38.15 55.22 38.37 56.59 38.5 58 38.5 70.15 38.5 80 29.88 80 19.25 80 8.62 70.15 0 58 0ZM 58 35.75C 56.39 35.75 54.84 35.56 53.35 35.24 53.35 35.24 46.88 39.13 46.88 39.13 46.88 39.13 46.97 32.76 46.97 32.76 42.01 29.77 38.75 24.84 38.75 19.25 38.75 10.14 47.37 2.75 58 2.75 68.63 2.75 77.25 10.14 77.25 19.25 77.25 28.36 68.63 35.75 58 35.75Z" fill="#c7b299" /><text transform="translate(58.00,108.00)" class="style0"><tspan x="-49.25 -24.62 0.00 24.62" fill="rgb(255,255,255)">2500</tspan></text><text transform="translate(-26.00,128.50)" class="style1"><tspan y="9.94" x="48.15 55.73 62.34 71.99 81.03 84.00 91.45 101.09 108.00 114.95" fill="rgb(199,177,153)">Blog posts</tspan></text><rect x="43" y="169" width="30" height="2" fill="rgb(255,255,255)"/></svg>